<svg xmlns="http://www.w3.org/2000/svg" width="320" height="200" viewBox="0 0 320 200" fill="none">
  <defs>
    <linearGradient id="truckA" x1="0" y1="0" x2="1" y2="1">
      <stop offset="0" stop-color="#F9C992"/>
      <stop offset="1" stop-color="#F3A45A"/>
    </linearGradient>
    <linearGradient id="truckB" x1="0" y1="0" x2="1" y2="1">
      <stop offset="0" stop-color="#FCFCFD"/>
      <stop offset="1" stop-color="#F3F5F9"/>
    </linearGradient>
  </defs>

  <ellipse cx="160" cy="172" rx="122" ry="12" fill="#EEF1F6"/>

  <circle cx="74" cy="78" r="44" fill="#F5F7FB"/>
  <circle cx="74" cy="78" r="28" fill="#FFFFFF" stroke="#E7EBF2" stroke-width="4"/>
  <path d="M74 57V80L88 72" stroke="#9DC1EB" stroke-width="4" stroke-linecap="round" stroke-linejoin="round"/>

  <rect x="84" y="88" width="146" height="54" rx="12" fill="url(#truckA)"/>
  <rect x="78" y="82" width="104" height="60" rx="10" fill="url(#truckB)" stroke="#EBEEF5" stroke-width="2"/>
  <rect x="191" y="96" width="48" height="46" rx="8" fill="url(#truckA)"/>
  <rect x="201" y="105" width="25" height="20" rx="3" fill="#F8E2C9" opacity=".8"/>

  <path d="M130 98h42" stroke="#D8DEE8" stroke-width="4" stroke-linecap="round"/>
  <path d="M130 108h42" stroke="#D8DEE8" stroke-width="4" stroke-linecap="round"/>
  <path d="M130 118h28" stroke="#D8DEE8" stroke-width="4" stroke-linecap="round"/>

  <circle cx="114" cy="147" r="15" fill="#F3F5F9"/>
  <circle cx="114" cy="147" r="9" fill="#CACFD8"/>
  <circle cx="214" cy="147" r="15" fill="#F3F5F9"/>
  <circle cx="214" cy="147" r="9" fill="#CACFD8"/>

  <rect x="78" y="144" width="170" height="7" rx="3.5" fill="#EBEEF5"/>
</svg>
